<?xml version="1.0" encoding="utf-8"?>
<!-- Generator: Adobe Illustrator 21.0.0, SVG Export Plug-In . SVG Version: 6.00 Build 0)  -->
<svg version="1.1" id="Layer_1" xmlns="http://www.w3.org/2000/svg" xmlns:xlink="http://www.w3.org/1999/xlink" x="0px" y="0px"
	 viewBox="0 0 395 120" style="enable-background:new 0 0 395 120;" fill="#fff" xml:space="preserve">
<g>
	<g>
		<g>
			<path d="M62.7,111.3h-3.1v-5.5l-5.1-9.1h3.6l3,6.4l2.9-6.4h3.5l-4.9,9.2C62.7,105.8,62.7,111.3,62.7,111.3z"/>
			<path d="M72.1,111.6c-2.9,0-5.6-1.8-5.6-5.7s2.6-5.7,5.6-5.7c2.9,0,5.6,1.8,5.6,5.7S75,111.6,72.1,111.6z M72.1,102.6
				c-2.2,0-2.6,1.9-2.6,3.3c0,1.4,0.4,3.3,2.6,3.3c2.2,0,2.6-1.9,2.6-3.3C74.7,104.5,74.3,102.6,72.1,102.6z"/>
			<path d="M89.4,111.3h-2.7v-1.5h0c-0.7,1.2-1.8,1.8-3.3,1.8c-2.1,0-3.7-1.2-3.7-4v-7.1h2.9v6.7c0,1.7,1,2,1.9,2
				c0.9,0,2.2-0.5,2.2-2.5v-6.3h2.9L89.4,111.3L89.4,111.3z"/>
			<path d="M92.1,100.5h2.7v1.9h0c0.6-1.1,1.2-2.2,3-2.2c0.2,0,0.4,0,0.6,0v2.9c-0.2,0-0.6,0-0.8,0c-2.2,0-2.6,1.4-2.6,2.6v5.7h-2.9
				L92.1,100.5L92.1,100.5z"/>
			<path d="M115.3,101.5c-0.2-0.9-0.7-2.5-3.2-2.5c-1.5,0-3.6,1-3.6,5.1c0,2.6,1,5,3.6,5c1.7,0,2.9-1,3.2-2.8h3.1
				c-0.6,3.2-2.7,5.4-6.4,5.4c-3.9,0-6.7-2.6-6.7-7.7c0-5.1,3-7.7,6.7-7.7c4.4,0,6.2,3,6.3,5.2L115.3,101.5L115.3,101.5z"/>
			<path d="M129.2,109.2c0,1.3,0.3,1.6,0.6,1.7v0.4h-3.1c-0.2-0.5-0.2-0.7-0.3-1.3c-0.7,0.7-1.6,1.6-3.5,1.6c-1.6,0-3.3-0.9-3.3-3.2
				c0-2.1,1.3-3.2,3.2-3.5l2.6-0.4c0.4-0.1,1-0.2,1-0.9c0-1.2-1.1-1.3-1.9-1.3c-1.4,0-1.7,0.9-1.8,1.5h-2.8c0.3-3.3,2.6-3.8,4.9-3.8
				c1.5,0,4.3,0.5,4.3,3.1L129.2,109.2L129.2,109.2z M126.5,106c-0.3,0.2-0.8,0.4-1.9,0.6c-1.1,0.2-1.9,0.4-1.9,1.6
				c0,1,0.8,1.3,1.3,1.3c1.3,0,2.6-0.8,2.6-2.1V106z"/>
			<path d="M147.3,111.3h-2.9v-6.6c0-1.6-0.7-2.1-1.6-2.1c-1.4,0-1.9,0.9-1.9,2.2v6.5h-2.9v-6.5c0-0.9,0-2.2-1.7-2.2
				c-1.3,0-1.8,0.9-1.8,2.1v6.6h-2.9v-10.9h2.7v1.6h0c0.4-0.7,1.2-1.9,3.1-1.9c1.6,0,2.3,0.6,3,1.7c0.4-0.5,1.2-1.7,2.9-1.7
				c2.1,0,3.8,1.2,3.8,3.6L147.3,111.3L147.3,111.3z"/>
			<path d="M152.6,102L152.6,102c0.6-0.9,1.4-1.9,3.3-1.9c2.4,0,4.5,1.8,4.5,5.6c0,3-1.3,5.8-4.6,5.8c-2,0-2.7-1.1-3.1-1.7h0v5.6
				h-2.9v-15.1h2.7V102z M155.1,109.3c1.8,0,2.3-2,2.3-3.3c0-1.7-0.6-3.3-2.4-3.3c-2,0-2.4,1.8-2.4,3.5
				C152.6,107.7,153.3,109.3,155.1,109.3z"/>
			<path d="M172.2,111.3h-2.7v-1.5h0c-0.7,1.2-1.8,1.8-3.3,1.8c-2.1,0-3.7-1.2-3.7-4v-7.1h2.9v6.7c0,1.7,1,2,1.9,2
				c0.9,0,2.2-0.5,2.2-2.5v-6.3h2.9L172.2,111.3L172.2,111.3z"/>
			<path d="M181,103.8c-0.1-0.7-0.4-1.4-1.9-1.4c-1.6,0-1.8,0.6-1.8,1.1c0,1.7,6.8,0.5,6.8,4.5c0,3.2-3.1,3.7-4.8,3.7
				c-2.5,0-5.1-0.9-5.2-3.8h2.9c0,0.9,0.6,1.6,2.4,1.6c1.5,0,1.8-0.7,1.8-1.1c0-1.8-6.7-0.4-6.7-4.5c0-1.6,1-3.6,4.4-3.6
				c2.1,0,4.7,0.5,4.9,3.6L181,103.8L181,103.8z"/>
			<path d="M196.8,111.6c-2.9,0-5.6-1.8-5.6-5.7s2.6-5.7,5.6-5.7c2.9,0,5.6,1.8,5.6,5.7S199.7,111.6,196.8,111.6z M196.8,102.6
				c-2.2,0-2.6,1.9-2.6,3.3c0,1.4,0.4,3.3,2.6,3.3c2.2,0,2.6-1.9,2.6-3.3C199.4,104.5,199,102.6,196.8,102.6z"/>
			<path d="M214.2,111.3h-2.9v-6.6c0-0.8,0-2.1-1.9-2.1c-1.3,0-2.2,0.9-2.2,2.5v6.2h-2.9v-10.9h2.7v1.6h0c0.4-0.7,1.2-1.9,3.3-1.9
				c2.1,0,3.8,1.2,3.8,3.6L214.2,111.3L214.2,111.3z"/>
			<path d="M219.9,96.7h3.3c1.9,8,2.1,9,2.3,10.7h0c0.3-1.5,0.5-3,2-10.7h3.2c1.7,8,1.9,8.8,2.2,10.7h0c0.2-1.4,0.5-2.7,2.4-10.7
				h3.1l-4.1,14.7h-2.9c-1.5-7.2-1.8-8.6-2.3-11.4h0c-0.4,2.8-0.7,3.9-2.3,11.4H224L219.9,96.7z"/>
			<path d="M248.8,108.1c-0.8,2.6-2.9,3.5-4.8,3.5c-3.1,0-5.4-1.5-5.4-5.9c0-1.3,0.4-5.5,5.2-5.5c2.1,0,5.1,1,5.1,6v0.5h-7.5
				c0.1,0.8,0.2,2.7,2.6,2.7c0.8,0,1.6-0.4,1.8-1.2L248.8,108.1L248.8,108.1z M246,104.8c-0.2-1.8-1.3-2.3-2.2-2.3
				c-1.3,0-2.1,0.9-2.2,2.3H246z"/>
			<path d="M253.6,101.9L253.6,101.9c0.5-0.7,1.3-1.7,3.2-1.7c2.4,0,4.5,1.8,4.5,5.6c0,3-1.3,5.8-4.6,5.8c-1.2,0-2.5-0.4-3.1-1.7h0
				v1.4h-2.8V96.7h2.9L253.6,101.9L253.6,101.9z M255.9,102.6c-2,0-2.5,1.8-2.5,3.5c0,1.6,0.7,3.1,2.5,3.1c1.8,0,2.3-2,2.3-3.3
				C258.3,104.3,257.7,102.6,255.9,102.6z"/>
		</g>
	</g>
	<g>
		<path d="M390.5,87.1V91h-3.8v-3.9H390.5z"/>
		<path d="M385.4,71.6c1.4,0.1,5.5,1.3,5.5,6.4c0,5.3-4,6.5-7,6.5c-4.5,0-7.8-2-7.8-6.7c0-2.2,1-5.8,5.4-6.2v3.7
			c-0.9,0.2-2.4,0.7-2.3,2.4c0,2.3,2.3,2.9,4,2.9c1.5,0,4.6-0.1,4.6-2.8c0-1.9-1.8-2.5-2.4-2.5L385.4,71.6L385.4,71.6z"/>
		<path d="M390.9,62.7c0,3.8-2.3,7.2-7.4,7.2c-5.1,0-7.4-3.4-7.4-7.2s2.3-7.2,7.4-7.2S390.9,58.9,390.9,62.7z M379.2,62.7
			c0,2.8,2.5,3.4,4.3,3.4c1.8,0,4.3-0.5,4.3-3.4s-2.5-3.4-4.3-3.4C381.7,59.3,379.2,59.9,379.2,62.7z"/>
		<path d="M390.5,33v3.7H382c-2.1,0-2.8,0.9-2.8,2c0,1.8,1.2,2.5,2.9,2.5h8.4v3.7h-8.4c-1.2,0-2.8,0-2.8,2.2c0,1.7,1.2,2.3,2.7,2.3
			h8.5V53h-14v-3.5h2.1v-0.1c-0.9-0.5-2.4-1.5-2.4-4c0-2,0.7-2.9,2.2-3.9c-0.7-0.5-2.2-1.5-2.2-3.7c0-2.7,1.6-4.9,4.7-4.9L390.5,33
			L390.5,33z"/>
	</g>
	<g>
		<path d="M50.4,49.6c-0.3,0.1-0.5,0.1-0.7,0.1c-4,0-7.9,0-11.9,0c-0.1,0-0.3,0-0.4,0c-0.2,0-0.4-0.1-0.4-0.3
			c-0.1-0.3-0.2-0.6-0.2-1c-0.7-3-2.6-4.7-5.6-5.3c-2.6-0.5-5.1-0.4-7.7,0.1c-0.8,0.2-1.6,0.5-2.2,0.9c-1.5,1-2,2.5-1.8,4.2
			c0.1,0.7,0.5,1.3,1.1,1.8c0.7,0.6,1.6,1,2.5,1.3c2.1,0.8,4.3,1.2,6.5,1.7c3.6,0.7,7.2,1.4,10.7,2.6c2.2,0.7,4.2,1.6,6.1,2.9
			c2.6,1.8,4.6,4.2,5.2,7.3c1.2,5.8-0.2,13.3-7.1,17.5c-2.5,1.5-5.1,2.4-7.9,3c-4,0.8-8,0.9-12.1,0.5c-3.2-0.3-6.3-1-9.2-2.2
			c-3-1.2-5.6-2.9-7.6-5.5c-1.9-2.4-2.9-5.2-3.3-8.2c-0.1-0.5-0.1-1.1-0.1-1.6c0-0.3,0.1-0.4,0.3-0.4c0.1,0,0.3,0,0.4,0
			c4.2,0,8.4,0,12.6,0c0.1,0,0.2,0,0.3,0c0.3,0,0.4,0.1,0.5,0.4c0,0.5,0.1,0.9,0.2,1.4c0.4,2.1,1.7,3.6,3.6,4.5
			c1.3,0.6,2.6,0.9,4,1.1c2.2,0.3,4.5,0.4,6.7-0.1c1.3-0.3,2.6-0.7,3.6-1.5c0.9-0.7,1.5-1.5,1.7-2.6c0.3-1.3,0-2.4-0.9-3.3
			c-0.7-0.7-1.5-1.1-2.4-1.4c-1.8-0.7-3.7-1.1-5.6-1.5c-3.4-0.7-6.8-1.3-10.2-2.3c-2.1-0.6-4.2-1.4-6.1-2.5
			c-1.3-0.7-2.5-1.6-3.5-2.7C7.2,56.7,6.2,54,6,51.1C5.7,46.6,6.9,42.5,9.8,39c2.2-2.6,5.1-4.3,8.3-5.3c2.7-0.9,5.6-1.2,8.4-1.2
			c3.6,0,7.2,0.2,10.7,1.2c1.3,0.4,2.6,0.8,3.9,1.4c4.6,2.2,7.4,5.9,8.6,10.8C50.1,47.1,50.3,48.4,50.4,49.6z"/>
		<path d="M118,78.7c-0.3,0.1-0.4,0.3-0.5,0.5c-2.7,4.4-6.6,7-11.6,7.8c-3.4,0.6-6.9,0.5-10.2-0.5c-5.2-1.6-8.6-5.1-10.2-10.2
			c-0.8-2.4-1.1-4.9-1.1-7.4c0-11.4,0-22.8,0-34.2c0-0.1,0-0.3,0-0.4c0-0.2,0.1-0.3,0.3-0.3c0.2,0,0.3,0,0.5,0c4.1,0,8.1,0,12.2,0
			c0.1,0,0.2,0,0.3,0c0.3,0,0.5,0.1,0.4,0.4c0,0.2,0,0.4,0,0.5c0,10.3,0,20.6,0,30.9c0,1.4,0.1,2.7,0.4,4.1c0.8,3.4,3.1,5.4,6.5,5.8
			c1.8,0.2,3.5,0.2,5.2-0.4c3.6-1.1,5.8-3.6,6.7-7.1c0.4-1.5,0.5-3,0.5-4.5c0-9.6,0-19.2,0-28.7c0-0.1,0-0.3,0-0.4
			c0-0.6-0.1-0.7,0.7-0.7c4.1,0,8.3,0,12.4,0c0.1,0,0.3,0,0.4,0c0.2,0,0.3,0.1,0.3,0.3c0,0.2,0,0.4,0,0.5c0,16.8,0,33.5,0,50.3
			c0,1,0.2,0.9-0.8,0.9c-3.8,0-7.6,0-11.5,0c-0.1,0-0.3,0-0.4,0c-0.4,0.1-0.5-0.1-0.5-0.5c0-1.3,0-2.6,0-4
			C118,80.6,118,79.7,118,78.7z"/>
		<path d="M184.6,86.4c-0.1,0.1-0.3,0.1-0.4,0.1c-4.3,0-8.6,0-12.9,0c-0.5,0-0.5,0-0.5-0.6c0-1.5,0-3,0-4.5c0-9.1,0-18.2,0-27.3
			c0-1.5-0.2-2.9-0.8-4.3c-1.1-2.6-3.1-4-5.9-4.4c-1.2-0.2-2.4-0.1-3.6,0.1c-3.1,0.6-4.9,2.5-5.6,5.5c-0.2,0.9-0.3,1.9-0.3,2.8
			c0,10.5,0,21.1,0,31.6c0,1.1,0.2,0.9-0.9,0.9c-4.1,0-8.1,0-12.1,0c-0.2,0-0.4,0-0.6,0c-0.2,0-0.3-0.1-0.3-0.3c0-0.2,0-0.4,0-0.5
			c0-10.9,0-21.8,0-32.7c0-2.9,0.3-5.8,1.2-8.7c1.7-5.2,5.1-8.6,10.2-10.4c2.8-1,5.7-1.4,8.6-1.5c3.5-0.1,7,0,10.5,0.8
			c2.4,0.6,4.7,1.4,6.7,2.9c1.3,0.4,2.1,1.5,2.9,2.5c1.6,1.9,2.5,4.2,3.1,6.6c0.7,2.5,0.9,5.1,0.9,7.7c0,10.9,0,21.9,0,32.8
			C184.7,85.8,184.8,86.1,184.6,86.4z"/>
		<path d="M352.9,44.9c-0.3,0-0.6,0-0.8,0c-7.6,0-15.3,0-22.9,0c-1,0-0.8,0.1-0.8-0.9c0-3.1,0-6.3,0-9.4c0-0.7-0.1-0.7,0.7-0.7
			c9.4,0,18.8,0,28.3,0c4.1,0,8.2,0,12.3,0c0.1,0,0.3,0,0.4,0c0.4,0,0.6,0.1,0.5,0.5c0,0.1,0,0.2,0,0.3c0,3.3,0,6.5,0,9.8
			c0,0.5-0.1,0.8-0.4,1.2c-8.3,9.4-16.7,18.7-25,28.1c-0.3,0.3-0.5,0.6-0.8,0.9c0.3,0.2,0.6,0.1,0.9,0.1c8.5,0,17,0,25.4,0
			c1,0,0.9-0.1,0.9,0.8c0,3.2,0,6.4,0,9.6c0,0.9,0.1,0.8-0.8,0.8c-11.8,0-23.7,0-35.5,0c-2.7,0-5.3,0-8,0c-0.7,0-0.7,0-0.7-0.6
			c0-3.2,0-6.3,0-9.5c0-0.4,0.1-0.7,0.4-1c8.5-9.7,17.1-19.4,25.6-29.2c0.2-0.2,0.4-0.4,0.5-0.6C353,45,353,45,352.9,44.9z"/>
		<path d="M72.6,59.2c0,4.7,0,9.4,0,14.1c0,0.3,0,0.6,0.1,0.9c0.1,1.1,0.8,1.8,1.9,2.1c1.3,0.3,2.7,0.3,4,0.3c0.7,0,1.4,0,2.1-0.1
			c0.4-0.1,0.5,0,0.5,0.4c0,3.2,0,6.3,0,9.5c0,0.3-0.1,0.5-0.4,0.5c-4,0.2-7.9,0.3-11.9,0c-1.5-0.1-3-0.5-4.4-1
			c-3-1.2-4.7-3.3-5.2-6.5c-0.2-1.1-0.3-2.3-0.3-3.4c0-10.3,0-20.5,0-30.8c0-0.9,0-0.9-1-0.9c-1.8,0-3.7,0-5.5,0
			c-0.5,0-0.6,0-0.6-0.5c0-2.9,0-5.8,0-8.7c0-0.5,0-0.6,0.5-0.6c1.9,0,3.8,0,5.7,0c0.2,0,0.4,0,0.5,0c0.2,0,0.3-0.1,0.3-0.3
			c0-0.2,0-0.4,0-0.5c0-4.1,0-8.3,0-12.4c0-0.2,0-0.4,0-0.5c0-0.2,0.1-0.3,0.3-0.3c0.2,0,0.3,0,0.5,0c4.1,0,8.1,0,12.2,0
			c0.1,0,0.3,0,0.4,0c0.3,0,0.4,0.1,0.4,0.4c0,0.2,0,0.4,0,0.5c0,4.1,0,8.2,0,12.3c0,0.2,0,0.4,0,0.5c0,0.2,0.1,0.3,0.3,0.3
			c0.2,0,0.4,0,0.5,0c2.3,0,4.7,0,7,0c0.6,0,0.6,0,0.6,0.6c0,2.9,0,5.7,0,8.6c0,0.6,0,0.6-0.6,0.6c-2.3,0-4.7,0-7,0
			c-0.9,0-0.9,0-0.9,0.8C72.6,49.8,72.6,54.5,72.6,59.2C72.6,59.2,72.6,59.2,72.6,59.2z"/>
		<path d="M184.6,86.4c0-0.2,0-0.5,0-0.7c0-11.2,0-22.4,0-33.5c0-1.2-0.2-2.3-0.3-3.5c-0.3-2.1-0.7-4.1-1.5-6
			c-0.9-2.4-2.4-4.5-4.4-6.2c-0.2-0.2-0.5-0.2-0.7-0.5c0.2,0,0.4-0.1,0.5-0.2c2.4-1.6,5.1-2.5,8-2.9c3.8-0.7,7.7-0.6,11.6-0.3
			c2.1,0.2,4.1,0.6,6,1.3c4.7,1.7,7.8,4.8,9.4,9.5c0.7,2.2,1.2,4.4,1.4,6.6c0.3,2.6,0.3,5.1,0.3,7.7c0,9.3,0,18.6,0,27.9
			c0,1,0.1,0.9-0.9,0.9c-4.1,0-8.1,0-12.2,0c-0.8,0-0.8,0.1-0.8-0.8c0-10.5,0-21.1,0-31.6c0-1.2-0.2-2.4-0.6-3.6
			c-1-2.9-3.1-4.6-6.2-5c-1.2-0.1-2.3-0.1-3.4,0.1c-3.2,0.6-5.2,2.7-5.9,5.9c-0.2,0.8-0.2,1.7-0.2,2.5c0,10.6,0,21.2,0,31.8
			C184.7,86,184.8,86.2,184.6,86.4z"/>
		<path d="M161.9,27.6c-6.4,0-11.6-5.2-11.5-11.7c0-6.6,5.6-11.6,11.7-11.5c6.3,0.1,11.5,5.3,11.4,11.7
			C173.5,22.9,168,27.7,161.9,27.6z"/>
		<path d="M193.7,27.6c-6.1,0.1-11.6-4.9-11.6-11.5c0-6.5,5.1-11.6,11.6-11.6c5.9,0,11.6,4.7,11.6,11.6
			C205.2,22.9,199.5,27.7,193.7,27.6z"/>
		<path d="M323.3,33.9c-4,0-8,0-12.1,0c-0.6,0-0.6,0-0.6,0.6c0,2.2,0,4.3,0,6.5c0,0.2,0.1,0.4-0.1,0.6c-0.2-0.2-0.3-0.5-0.4-0.7
			c-1.8-3.2-4.3-5.7-7.8-7c-4.5-1.7-9.2-1.7-13.8-0.2c-5.3,1.7-9,5.2-11.6,10.1c-2.2,4.1-3.1,8.6-3.4,13.3c-0.1,2.7-0.1,5.3,0.3,8
			c0.4,3.3,1.2,6.4,2.6,9.4c2.4,4.9,6,8.5,11.1,10.5c3.8,1.5,7.7,1.8,11.7,1.2c2.2-0.3,4.2-1,6-2.3c1.8-1.2,3.1-2.8,4.2-4.6
			c0.1-0.2,0.2-0.5,0.5-0.6c0.2,0.2,0.1,0.4,0.1,0.6c0,2,0,3.9,0,5.9c0,1.6-0.1,3.3-0.6,4.8c-0.9,3.6-3.2,5.9-6.9,6.6
			c-2.1,0.4-4.2,0.4-6.2,0.2c-1.2-0.1-2.4-0.3-3.6-0.8c-1.5-0.6-2.5-1.7-3-3.3c-0.1-0.2-0.2-0.5-0.2-0.7c0-0.2-0.2-0.3-0.4-0.3
			c-0.1,0-0.3,0-0.4,0c-4.5,0-9,0-13.5,0c-0.2,0-0.4,0-0.7,0.1c0.2,3.6,1.5,6.6,4,9.2c1.3,1.3,2.7,2.3,4.3,3.2c3.8,2,8,3,12.3,3.2
			c2.8,0.1,5.5,0.1,8.3-0.3c2.7-0.3,5.4-0.9,8-1.9c5.9-2.2,9.7-6.3,11.2-12.4c0.7-2.7,0.9-5.4,0.9-8.1c0-16.6,0-33.1,0-49.7
			c0-0.2,0-0.3,0-0.5C323.8,34,323.6,33.9,323.3,33.9z M308.8,68c-1.1,2.7-2.8,4.8-5.6,5.9c-2.7,1-5.4,1.2-8.1,0.2
			c-1.9-0.6-3.4-1.9-4.5-3.6c-1.3-1.9-2-4-2.4-6.2c-0.7-4.1-0.5-8.1,0.7-12.1c0.6-2,1.6-3.8,3-5.2c2.1-2.1,4.7-2.9,7.7-2.6
			c4.2,0.4,7,2.7,8.8,6.4c1.4,2.8,1.9,5.8,1.9,9C310.2,62.6,309.8,65.4,308.8,68z"/>
		<path d="M272.5,84.3c0-0.2-0.1-0.4-0.3-0.5c-1.2-0.5-1.8-1.5-2.2-2.7c-0.5-1.6-0.6-3.2-0.6-4.8c0-9.3,0-18.6,0-28
			c0-0.7,0-1.4-0.1-2.1c-0.2-2.2-0.8-4.3-2.1-6.2c-1.4-2.1-3.4-3.7-5.6-4.8c-3.5-1.7-7.2-2.4-11-2.6c-2.2-0.1-4.4-0.1-6.6,0.1
			c-2.2,0.2-4.4,0.5-6.6,1.2c-4.1,1.3-7.4,3.7-9.5,7.6c-1.1,1.9-1.7,4-2.2,6.2c-0.2,1-0.4,2-0.4,3c0.2,0.1,0.4,0.1,0.6,0.1
			c4,0,8,0,12,0c0.1,0,0.2,0,0.3,0c0.3,0,0.4-0.1,0.4-0.3c0-0.3,0.1-0.7,0.2-1c0.7-3.3,2.6-5.1,5.8-5.7c1.8-0.3,3.7-0.2,5.5,0
			c1,0.1,2,0.4,2.9,0.8c1.5,0.7,2.4,1.8,2.8,3.4c0.1,0.5,0.1,0.9,0.2,1.4c0.1,1.5-0.5,2.7-1.9,3.5c-0.5,0.3-1,0.5-1.6,0.6
			c-1,0.3-2,0.4-2.9,0.5c-3.2,0.5-6.5,1-9.7,1.5c-2.1,0.3-4.3,0.7-6.3,1.5c-4.2,1.7-7.3,4.5-8.8,8.7c-1.1,3.1-1.4,6.4-0.8,9.6
			c0.9,5.3,3.8,8.9,8.8,10.8c5.1,1.9,10.3,1.6,15.4-0.3c3.1-1.1,5.6-3.2,7.8-5.5c0.1-0.1,0.2-0.3,0.5-0.3c0,0.2,0.1,0.5,0.1,0.7
			c0.1,1.6,0.5,3.1,0.9,4.5c0.2,0.7,0.2,0.7,1,0.7c4.4,0,8.9,0,13.3,0c0.1,0,0.3,0,0.4,0c0.3,0,0.4-0.1,0.4-0.4
			C272.5,85.2,272.5,84.7,272.5,84.3z M256.1,67.9c-0.1,2.7-1.4,4.9-3.4,6.6c-1.9,1.6-4.1,2.5-6.6,2.9c-1.4,0.2-2.9,0.3-4.3-0.1
			c-2.5-0.8-4.1-2.7-4.2-5.4c0-0.7,0-1.3,0.1-2c0.3-2.3,1.6-3.9,3.7-4.9c1.5-0.7,3.1-1.1,4.7-1.4c2-0.4,4.1-0.7,6.1-1.2
			c1.3-0.4,2.6-0.8,3.7-1.6c0.1,0,0.1-0.1,0.2,0c0,0,0,0,0,0C256.1,63.2,256.2,65.6,256.1,67.9z"/>
	</g>
</g>
</svg>
